<?xml version="1.0" encoding="UTF-8"?>
<svg version="1.1" xmlns="http://www.w3.org/2000/svg" width="1920" height="1080">
<path d="M0 0 C16.83 0 33.66 0 51 0 C51.03738281 7.486875 51.07476563 14.97375 51.11328125 22.6875 C51.14356432 27.43622075 51.17471449 32.18490418 51.20898438 36.93359375 C51.26327253 44.46759139 51.31438427 52.0015152 51.34643555 59.53564453 C51.37248287 65.61118763 51.41289606 71.68648224 51.46318626 77.76187134 C51.47984518 80.07741195 51.49136551 82.39299554 51.49761391 84.70858765 C51.50726529 87.95703049 51.53533824 91.204839 51.56762695 94.453125 C51.56619186 95.40619034 51.56475677 96.35925568 51.5632782 97.34120178 C51.65676969 104.01097462 52.44709184 109.93437388 56.8671875 115.2421875 C57.52976562 115.78101563 58.19234375 116.31984375 58.875 116.875 C59.53242187 117.42929687 60.18984375 117.98359375 60.8671875 118.5546875 C66.89907308 122.64222901 72.91905375 122.72743141 80 122 C86.11486176 120.30086204 90.67421143 116.35939177 94 111 C96.32260583 105.55237018 96.30575945 100.49820435 96.31884766 94.68017578 C96.32889328 93.65517471 96.3389389 92.63017365 96.34928894 91.57411194 C96.38009404 88.19785098 96.39714886 84.82166923 96.4140625 81.4453125 C96.43277627 79.09975504 96.45234984 76.7542043 96.4727478 74.40866089 C96.52405275 68.24381471 96.5636874 62.07894672 96.60089111 55.91400146 C96.64798598 48.51247718 96.7095769 41.11106103 96.76873779 33.70962524 C96.85693007 22.47312719 96.92670912 11.23664965 97 0 C113.83 0 130.66 0 148 0 C148.03738281 7.33089844 148.07476563 14.66179687 148.11328125 22.21484375 C148.14356848 26.86786175 148.17472137 31.52084185 148.20898438 36.17382812 C148.26324797 43.55409812 148.31436067 50.93429314 148.34643555 58.31469727 C148.37250511 64.26705403 148.41293391 70.21915811 148.46318626 76.17135811 C148.47983018 78.43862317 148.49135982 80.70593191 148.49761391 82.97324944 C148.5072817 86.15683151 148.53537395 89.33977074 148.56762695 92.52319336 C148.56619186 93.45396194 148.56475677 94.38473053 148.5632782 95.34370422 C148.69124966 104.31558289 150.5653111 111.5653111 157 118 C163.16206992 122.35853726 169.61290519 122.85010218 177 122 C183.01669482 120.1049111 187.53630825 117.30242224 191.0625 112.0390625 C194.00777234 105.63309516 194.30284912 99.6968518 194.31884766 92.75024414 C194.32889328 91.74460419 194.3389389 90.73896423 194.34928894 89.70285034 C194.38004488 86.39695783 194.3971351 83.09114604 194.4140625 79.78515625 C194.43278023 77.48586842 194.4523541 75.18658742 194.4727478 72.88731384 C194.52401091 66.84907052 194.5636679 60.81080495 194.60089111 54.77246094 C194.64801899 47.52025553 194.70959193 40.26816005 194.76873779 33.01604462 C194.85687905 22.01074093 194.92669459 11.00545755 195 0 C211.5 0 228 0 245 0 C245.16043524 27.34975143 245.16043524 27.34975143 245.1953125 39.08007812 C245.21914935 47.05912191 245.24723476 55.03793745 245.30175781 63.0168457 C245.34547567 69.45540319 245.36919176 75.89376203 245.37950897 82.33245659 C245.38685396 84.77903809 245.40119594 87.22560971 245.42292023 89.67210579 C245.56111786 105.89225589 245.04816558 120.48197608 237.4375 135.1875 C237.10234375 135.84548584 236.7671875 136.50347168 236.421875 137.18139648 C232.67814 144.14937256 227.65720283 149.54394216 222 155 C221.36707031 155.66386719 220.73414063 156.32773437 220.08203125 157.01171875 C206.37002276 170.48157256 186.70212847 174.3125 168.31274414 174.3125 C150.79443744 174.08034715 135.76279108 167.7416906 122 157 C121.28650391 157.63615234 121.28650391 157.63615234 120.55859375 158.28515625 C103.56998355 172.52054785 83.59863962 175.59072837 62 174 C47.32325757 172.15502924 33.86967609 164.77093627 23 155 C22.38898438 154.48179687 21.77796875 153.96359375 21.1484375 153.4296875 C8.88877736 142.28963102 0.92396525 124.71883075 -0.18068314 108.31725693 C-0.24376476 105.43469241 -0.24774148 102.55847229 -0.22705078 99.67529297 C-0.22734283 98.59118637 -0.22763489 97.50707977 -0.22793579 96.39012146 C-0.22655305 92.840726 -0.21104175 89.29154586 -0.1953125 85.7421875 C-0.19157862 83.2678336 -0.18873342 80.79347822 -0.18673706 78.31912231 C-0.17913017 71.83202983 -0.15950707 65.34502804 -0.1373291 58.85797119 C-0.11319382 51.06096238 -0.10407567 43.26392406 -0.09242249 35.46688843 C-0.07308093 23.64452936 -0.03473762 11.82236899 0 0 Z " fill="#090040" transform="translate(1586,439)"/>
<path d="M0 0 C0.99574036 -0.00014603 1.99148071 -0.00029205 3.01739502 -0.0004425 C6.2962871 0.00025206 9.5751218 0.00802312 12.85400391 0.01586914 C15.13229339 0.01773494 17.41058327 0.01915808 19.68887329 0.02015686 C25.67621983 0.02396928 31.66354198 0.0337887 37.65087891 0.04486084 C43.7641568 0.05510236 49.87743865 0.05966035 55.99072266 0.06469727 C67.9790146 0.0754121 79.96728847 0.09247322 91.95556641 0.11352539 C92.04928754 7.38206671 92.11983826 14.65047252 92.16281509 21.9195013 C92.18346814 25.29681558 92.21136217 28.67370907 92.25732422 32.05078125 C92.56184216 56.21069726 91.75851342 78.68720768 74.06787109 97.05688477 C72.70959307 98.42164401 71.33305817 99.76816171 69.95556641 101.11352539 C69.29814453 101.79157227 68.64072266 102.46961914 67.96337891 103.16821289 C54.34331895 116.3206313 35.54821625 119.09975661 17.45166016 119.42993164 C16.48776871 119.45071274 15.52387726 119.47149384 14.53077698 119.49290466 C11.48493823 119.55771435 8.43902145 119.61696255 5.39306641 119.67602539 C3.31428265 119.71927602 1.23550647 119.76289227 -0.84326172 119.80688477 C-5.91024129 119.91332427 -10.97729848 120.01477992 -16.04443359 120.11352539 C-14.79707792 120.76445129 -13.54641527 121.40904208 -12.29443359 122.05102539 C-11.59833984 122.41067383 -10.90224609 122.77032227 -10.18505859 123.14086914 C-6.35746163 124.88005097 -3.00282094 125.24772755 1.18310547 125.31884766 C2.22388245 125.33879288 3.26465942 125.3587381 4.3369751 125.37928772 C5.45376648 125.39600021 6.57055786 125.41271271 7.72119141 125.42993164 C9.44399323 125.46110329 9.44399323 125.46110329 11.20159912 125.49290466 C14.86952752 125.55827532 18.53752733 125.61722733 22.20556641 125.67602539 C24.69255295 125.71922246 27.17953228 125.76283714 29.66650391 125.80688477 C35.76278594 125.91472954 41.85912239 126.01389644 47.95556641 126.11352539 C47.95556641 142.94352539 47.95556641 159.77352539 47.95556641 177.11352539 C40.67565211 177.19795739 33.3975632 177.27802453 26.11758423 177.32052612 C22.72579493 177.34144482 19.3344208 177.36928063 15.94287109 177.4152832 C-14.54877368 177.79840069 -38.71602607 172.54067347 -61.42333984 150.84008789 C-78.54749022 132.91184697 -85.57192222 109.94795182 -85.39794922 85.53637695 C-84.87712311 63.05901004 -75.87661977 42.95877889 -60.66943359 26.55102539 C-59.80318359 25.74665039 -58.93693359 24.94227539 -58.04443359 24.11352539 C-57.39603516 23.4599707 -56.74763672 22.80641602 -56.07958984 22.13305664 C-40.87016185 7.42976602 -21.01577524 -0.08105258 0 0 Z M-19.98193359 58.48852539 C-20.67158203 59.03250977 -21.36123047 59.57649414 -22.07177734 60.13696289 C-24.48660241 62.55656979 -26.18039397 65.2564791 -28.04443359 68.11352539 C-20.8036987 68.18991261 -13.56306867 68.2422665 -6.32202148 68.27832031 C-3.86137 68.29335879 -1.4007451 68.31379481 1.05981445 68.33984375 C4.60716333 68.37644395 8.15415617 68.39330174 11.70166016 68.40649414 C12.79264511 68.421978 13.88363007 68.43746185 15.00767517 68.45341492 C22.76280603 68.45510394 29.47046232 67.68947189 35.83056641 62.98852539 C37.80576436 60.31619875 38.60609684 58.53784921 39.58837891 55.43383789 C39.97727295 54.21978271 39.97727295 54.21978271 40.37402344 52.98120117 C40.56593262 52.36486816 40.7578418 51.74853516 40.95556641 51.11352539 C34.74833749 51.01393394 28.54158353 50.94171734 22.33374023 50.89379883 C20.22623584 50.87380261 18.11878607 50.84659646 16.01147461 50.81176758 C-3.1528949 50.21059634 -3.1528949 50.21059634 -19.98193359 58.48852539 Z " fill="#090040" transform="translate(603.04443359375,438.886474609375)"/>
<path d="M0 0 C0.99574036 -0.00014603 1.99148071 -0.00029205 3.01739502 -0.0004425 C6.2962871 0.00025206 9.5751218 0.00802312 12.85400391 0.01586914 C15.13229339 0.01773494 17.41058327 0.01915808 19.68887329 0.02015686 C25.67621983 0.02396928 31.66354198 0.0337887 37.65087891 0.04486084 C43.7641568 0.05510236 49.87743865 0.05966035 55.99072266 0.06469727 C67.9790146 0.0754121 79.96728847 0.09247322 91.95556641 0.11352539 C92.04928754 7.38206671 92.11983826 14.65047252 92.16281509 21.9195013 C92.18346814 25.29681558 92.21136217 28.67370907 92.25732422 32.05078125 C92.56184216 56.21069726 91.75851342 78.68720768 74.06787109 97.05688477 C72.70959307 98.42164401 71.33305817 99.76816171 69.95556641 101.11352539 C69.29814453 101.79157227 68.64072266 102.46961914 67.96337891 103.16821289 C54.34331895 116.3206313 35.54821625 119.09975661 17.45166016 119.42993164 C16.48776871 119.45071274 15.52387726 119.47149384 14.53077698 119.49290466 C11.48493823 119.55771435 8.43902145 119.61696255 5.39306641 119.67602539 C3.31428265 119.71927602 1.23550647 119.76289227 -0.84326172 119.80688477 C-5.91024129 119.91332427 -10.97729848 120.01477992 -16.04443359 120.11352539 C-14.79707792 120.76445129 -13.54641527 121.40904208 -12.29443359 122.05102539 C-11.59833984 122.41067383 -10.90224609 122.77032227 -10.18505859 123.14086914 C-6.35746163 124.88005097 -3.00282094 125.24772755 1.18310547 125.31884766 C2.22388245 125.33879288 3.26465942 125.3587381 4.3369751 125.37928772 C5.45376648 125.39600021 6.57055786 125.41271271 7.72119141 125.42993164 C9.44399323 125.46110329 9.44399323 125.46110329 11.20159912 125.49290466 C14.86952752 125.55827532 18.53752733 125.61722733 22.20556641 125.67602539 C24.69255295 125.71922246 27.17953228 125.76283714 29.66650391 125.80688477 C35.76278594 125.91472954 41.85912239 126.01389644 47.95556641 126.11352539 C47.95556641 142.94352539 47.95556641 159.77352539 47.95556641 177.11352539 C40.67565211 177.19795739 33.3975632 177.27802453 26.11758423 177.32052612 C22.72579493 177.34144482 19.3344208 177.36928063 15.94287109 177.4152832 C-14.54877368 177.79840069 -38.71602607 172.54067347 -61.42333984 150.84008789 C-78.54749022 132.91184697 -85.57192222 109.94795182 -85.39794922 85.53637695 C-84.87712311 63.05901004 -75.87661977 42.95877889 -60.66943359 26.55102539 C-59.80318359 25.74665039 -58.93693359 24.94227539 -58.04443359 24.11352539 C-57.39603516 23.4599707 -56.74763672 22.80641602 -56.07958984 22.13305664 C-40.87016185 7.42976602 -21.01577524 -0.08105258 0 0 Z M-19.98193359 58.48852539 C-20.67158203 59.03250977 -21.36123047 59.57649414 -22.07177734 60.13696289 C-24.48660241 62.55656979 -26.18039397 65.2564791 -28.04443359 68.11352539 C-20.8036987 68.18991261 -13.56306867 68.2422665 -6.32202148 68.27832031 C-3.86137 68.29335879 -1.4007451 68.31379481 1.05981445 68.33984375 C4.60716333 68.37644395 8.15415617 68.39330174 11.70166016 68.40649414 C12.79264511 68.421978 13.88363007 68.43746185 15.00767517 68.45341492 C22.76280603 68.45510394 29.47046232 67.68947189 35.83056641 62.98852539 C37.80576436 60.31619875 38.60609684 58.53784921 39.58837891 55.43383789 C39.97727295 54.21978271 39.97727295 54.21978271 40.37402344 52.98120117 C40.56593262 52.36486816 40.7578418 51.74853516 40.95556641 51.11352539 C34.74833749 51.01393394 28.54158353 50.94171734 22.33374023 50.89379883 C20.22623584 50.87380261 18.11878607 50.84659646 16.01147461 50.81176758 C-3.1528949 50.21059634 -3.1528949 50.21059634 -19.98193359 58.48852539 Z " fill="#090040" transform="translate(230.04443359375,438.886474609375)"/>
<path d="M0 0 C1.41047141 0.00084819 2.82094415 0.0003674 4.23141479 -0.00132751 C8.02621574 -0.00218143 11.82072696 0.01534524 15.61546111 0.03639436 C19.59391129 0.05526298 23.57236952 0.05691957 27.55085754 0.06047058 C35.0693645 0.06976133 42.58773917 0.09433448 50.10618812 0.12451905 C58.67216236 0.15815603 67.23814321 0.17457235 75.80416715 0.18960536 C93.41095732 0.22088704 111.01756637 0.27586151 128.62426758 0.34057617 C128.62426758 16.84057617 128.62426758 33.34057617 128.62426758 50.34057617 C122.59036743 50.36244995 122.59036743 50.36244995 116.43457031 50.38476562 C103.14718788 50.43509181 89.85992708 50.50153344 76.5726614 50.57629108 C68.51622769 50.62122493 60.45983795 50.66064513 52.40332031 50.68701172 C45.37989788 50.71001136 38.35661486 50.74343129 31.33330303 50.78927773 C27.61572498 50.81318356 23.89828477 50.83192957 20.18063164 50.83819008 C16.02679709 50.8453806 11.87344129 50.8758383 7.71972656 50.90820312 C5.87797852 50.90605049 5.87797852 50.90605049 3.99902344 50.90385437 C-2.90263874 50.97995373 -8.66790486 51.14818652 -14.11791992 55.84057617 C-18.28004474 61.35180351 -19.01043626 65.60117544 -18.37573242 72.34057617 C-16.45510095 77.69812713 -13.4589881 80.79894833 -8.37573242 83.34057617 C-7.04568726 83.44348288 -5.71076838 83.48697459 -4.37680054 83.49879456 C-3.54104996 83.50858337 -2.70529938 83.51837219 -1.84422302 83.52845764 C-0.92569046 83.5342131 -0.0071579 83.53996857 0.93920898 83.54589844 C1.90510452 83.55579803 2.87100006 83.56569763 3.86616516 83.57589722 C7.06936158 83.60756834 10.27257286 83.63229182 13.47583008 83.65698242 C15.69258009 83.6775471 17.90932613 83.69854344 20.12606812 83.71995544 C25.96875809 83.7752263 31.81148374 83.82461345 37.65423584 83.87280273 C44.66016556 83.93179904 51.66602988 83.99805453 58.67190552 84.06310272 C69.32265303 84.16117529 79.97344192 84.24998826 90.62426758 84.34057617 C90.62426758 101.17057617 90.62426758 118.00057617 90.62426758 135.34057617 C80.47676758 135.39665039 80.47676758 135.39665039 70.12426758 135.45385742 C65.83127364 135.4841435 61.53832085 135.5152956 57.24536133 135.54956055 C50.43564962 135.60383107 43.62601929 135.65494344 36.81616211 135.68701172 C31.32415207 135.71307508 25.83241618 135.7534994 20.34057617 135.80376244 C18.24832578 135.82041056 16.15602799 135.8319376 14.0637207 135.83819008 C11.12658136 135.84785337 8.19014015 135.87593981 5.25317383 135.90820312 C4.39361588 135.90676804 3.53405792 135.90533295 2.64845276 135.90385437 C-3.25504337 135.99519717 -9.35841175 136.60772754 -13.93943787 140.75685596 C-18.051666 145.49746202 -18.50553351 149.10309272 -18.58105469 155.19873047 C-18.59095428 155.89167206 -18.60085388 156.58461365 -18.61105347 157.29855347 C-18.64262202 159.58726595 -18.66740745 161.87599919 -18.69213867 164.16479492 C-18.71271222 165.75235023 -18.7337088 167.33990011 -18.75511169 168.92744446 C-18.81029103 173.10474245 -18.85971854 177.28208954 -18.90795898 181.45947266 C-18.96703916 186.47223529 -19.03324437 191.48490824 -19.09825897 196.49759674 C-19.19621645 204.11186842 -19.28510801 211.72619777 -19.37573242 219.34057617 C-36.20573242 219.34057617 -53.03573242 219.34057617 -70.37573242 219.34057617 C-70.53616766 200.72563211 -70.53616766 200.72563211 -70.57104492 192.7019043 C-70.59482251 187.25781373 -70.62274319 181.81399593 -70.67749023 176.37011719 C-70.72141669 171.97396447 -70.74496661 167.57810483 -70.75524139 163.18174934 C-70.76254984 161.51665708 -70.77681745 159.85157821 -70.79865265 158.18661308 C-70.99141936 142.85790559 -69.31763597 125.32537992 -58.56713867 113.32104492 C-57.08114127 111.37924045 -57.08114127 111.37924045 -57.94213867 109.06323242 C-58.41522461 108.16475586 -58.88831055 107.2662793 -59.37573242 106.34057617 C-59.81054932 105.4972876 -59.81054932 105.4972876 -60.25415039 104.63696289 C-60.91170772 103.3629247 -61.57559224 102.09213758 -62.24487305 100.82421875 C-71.28655468 83.50741487 -73.59510376 64.65594032 -67.69604492 45.76245117 C-60.28123587 26.54537208 -47.59314687 13.13254927 -28.87182617 4.62963867 C-19.08353376 1.02054761 -10.43258206 -0.08671653 0 0 Z " fill="#090040" transform="translate(1169.375732421875,393.659423828125)"/>
<path d="M0 0 C2.63402009 2.0216387 5.14296487 4.14780444 7.64868164 6.32788086 C8.45692383 7.02397461 9.26516602 7.72006836 10.09790039 8.43725586 C26.61284595 23.77050374 35.70313393 46.27855382 36.80883789 68.55444336 C37.1656148 83.2908809 34.69076581 96.83268688 28.64868164 110.32788086 C28.28000977 111.18639648 27.91133789 112.04491211 27.53149414 112.92944336 C17.50248216 134.71660731 -1.4918577 149.34639986 -23.45776367 157.64379883 C-41.38889799 164.12175633 -63.43889423 163.62087946 -81.35131836 157.32788086 C-82.4225293 156.95405273 -83.49374023 156.58022461 -84.59741211 156.19506836 C-106.76048226 147.66863882 -123.63935659 130.6618193 -133.51098633 109.30151367 C-142.82505746 87.42616475 -143.10792181 62.89548875 -135.03881836 40.64038086 C-129.98018474 28.23468414 -123.22093389 17.49252385 -113.35131836 8.32788086 C-112.70291992 7.67432617 -112.05452148 7.02077148 -111.38647461 6.34741211 C-82.07647244 -21.98721562 -32.61447883 -23.76151198 0 0 Z M-81.10131836 48.39428711 C-87.85144257 57.8275857 -90.7334819 67.76283903 -89.35131836 79.32788086 C-86.8965947 89.75356112 -81.55749679 98.56586884 -72.81616211 104.82006836 C-63.78932635 110.34203128 -54.82285751 111.46609164 -44.35131836 110.32788086 C-34.45029098 107.77445801 -25.34886329 101.68187333 -19.86694336 92.96850586 C-14.66788993 83.12088701 -13.45200402 74.35483536 -15.35131836 63.32788086 C-16.36423979 60.10669471 -17.68761998 57.26029887 -19.35131836 54.32788086 C-19.90819336 53.31725586 -20.46506836 52.30663086 -21.03881836 51.26538086 C-27.26475155 43.35676303 -34.50507709 37.8504716 -44.35131836 35.32788086 C-58.75212906 33.61674352 -71.54750312 37.11310795 -81.10131836 48.39428711 Z " fill="#090040" transform="translate(1529.351318359375,454.672119140625)"/>
<path d="M0 0 C2.23246049 1.65963231 4.2898278 3.40623697 6.34765625 5.27734375 C7.14300781 5.96957031 7.93835938 6.66179687 8.7578125 7.375 C24.86166705 22.28413273 34.56055051 44.64736673 35.43763924 66.52146912 C35.4697038 68.98362964 35.47148091 71.44390194 35.46118164 73.90625 C35.46132767 74.83400742 35.46147369 75.76176483 35.46162415 76.71763611 C35.46093218 79.75839648 35.45317355 82.79909419 35.4453125 85.83984375 C35.44344577 87.95833299 35.44202307 90.07682267 35.44102478 92.1953125 C35.43721966 97.75190436 35.4274066 103.3084698 35.4163208 108.86505127 C35.40425777 115.54235793 35.39969489 122.21967346 35.39386749 128.89698792 C35.38419369 139.02379154 35.36502311 149.15053724 35.34765625 159.27734375 C18.51765625 159.27734375 1.68765625 159.27734375 -15.65234375 159.27734375 C-15.68972656 152.8475 -15.72710938 146.41765625 -15.765625 139.79296875 C-15.79592888 135.70049489 -15.8270926 131.60806326 -15.86132812 127.515625 C-15.91549361 121.03110984 -15.96660952 114.54667818 -15.9987793 108.06201172 C-16.0249383 102.8293324 -16.06542858 97.59693619 -16.11553001 92.36443329 C-16.13211395 90.37596937 -16.14368065 88.38745658 -16.14995766 86.39893341 C-16.19448864 63.62605648 -16.19448864 63.62605648 -27.46875 44.4296875 C-33.66937645 39.33139464 -41.53276639 36.60623517 -49.58984375 36.99609375 C-59.00669065 38.28020924 -66.5676301 42.02526315 -72.46484375 49.58984375 C-77.77227328 57.64927377 -78.79343579 66.8904167 -78.85766602 76.2902832 C-78.86756561 77.18834183 -78.87746521 78.08640045 -78.88766479 79.01167297 C-78.91917738 81.9712971 -78.94399667 84.93093727 -78.96875 87.890625 C-78.98932837 89.94614573 -79.01032508 92.00166232 -79.03172302 94.05717468 C-79.08685246 99.46087276 -79.13630195 104.86460845 -79.18457031 110.26837158 C-79.24369633 116.75542556 -79.30987401 123.24241096 -79.3748703 129.72940826 C-79.47276494 139.57867813 -79.56169963 149.42799247 -79.65234375 159.27734375 C-96.48234375 159.27734375 -113.31234375 159.27734375 -130.65234375 159.27734375 C-130.77267018 135.96075592 -130.77267018 135.96075592 -130.79882812 125.93359375 C-130.8166817 119.12232348 -130.83767986 112.31117551 -130.87866211 105.5 C-130.9115341 100.0016039 -130.92925482 94.50333917 -130.93697548 89.00485229 C-130.94246945 86.91915828 -130.95319598 84.83347051 -130.96953392 82.74783325 C-131.17268922 55.71016923 -126.28135724 30.89890894 -106.98046875 10.61328125 C-106.2121875 9.84242188 -105.44390625 9.0715625 -104.65234375 8.27734375 C-103.9046875 7.50648438 -103.15703125 6.735625 -102.38671875 5.94140625 C-75.11514551 -20.51743798 -30.61428796 -19.88350661 0 0 Z " fill="#090040" transform="translate(845.65234375,453.72265625)"/>
<path d="M0 0 C16.83 0 33.66 0 51 0 C51.3125 21.9375 51.3125 21.9375 51.38793945 28.74584961 C51.62450376 44.02318092 53.17445565 58.41918303 57.75 73.0625 C58.00531494 73.89338135 58.26062988 74.7242627 58.52368164 75.58032227 C63.45624695 91.15566818 70.44975402 109.20594936 82 121 C82.66 121 83.32 121 84 121 C104.06584458 97.46552429 113.7516287 63.23592041 114.31640625 32.8125 C114.33505737 31.97525391 114.3537085 31.13800781 114.3729248 30.27539062 C114.44060483 27.18368874 114.50114499 24.09183387 114.5625 21 C114.706875 14.07 114.85125 7.14 115 0 C131.83 0 148.66 0 166 0 C166.061875 7.486875 166.12375 14.97375 166.1875 22.6875 C166.22846802 26.15963013 166.22846802 26.15963013 166.27026367 29.7019043 C166.38787021 46.84920734 164.92531608 63.64313211 160.4375 80.25 C160.18774414 81.18489258 159.93798828 82.11978516 159.68066406 83.08300781 C150.58608923 115.57593258 133.27391835 154.73147159 102.74609375 172.296875 C92.86539183 177.47158796 81.97388601 178.76609942 71.0546875 176.34765625 C68.55300307 175.41053009 66.32380424 174.31669178 64 173 C63.12214844 172.525625 62.24429688 172.05125 61.33984375 171.5625 C29.95953715 153.20215184 14.10978988 112.20907057 5.21484375 78.8984375 C1.78934446 65.45526759 -0.16599131 52.1548813 -0.09765625 38.28125 C-0.09664917 37.30639648 -0.09564209 36.33154297 -0.09460449 35.32714844 C-0.08940938 31.71808683 -0.07544837 28.10904212 -0.0625 24.5 C-0.041875 16.415 -0.02125 8.33 0 0 Z " fill="#090040" transform="translate(342,439)"/>
<path d="M0 0 C16.83 0 33.66 0 51 0 C51 18.15 51 36.3 51 55 C65.52 55 80.04 55 95 55 C95 71.83 95 88.66 95 106 C80.48 106 65.96 106 51 106 C51.04676561 113.25334574 51.09739987 120.50498088 51.18379211 127.75769043 C51.22296997 131.13600584 51.25544494 134.51406433 51.27099609 137.89257812 C51.29253112 141.78036897 51.33923942 145.6671902 51.390625 149.5546875 C51.39185364 150.74988007 51.39308228 151.94507263 51.39434814 153.17648315 C51.53766247 161.4650721 52.42942889 169.33787578 58.4375 175.5 C69.63473127 182.05447684 80.78638663 180 94 180 C94 196.83 94 213.66 94 231 C64.62200552 231 40.09140059 228.86596828 18.28125 208.3671875 C-0.87913457 188.48500762 -0.45910201 162.87277521 -0.20599365 137.08764648 C-0.17486861 133.57411164 -0.16151127 130.06050903 -0.14648438 126.546875 C-0.11466128 119.6977373 -0.06206047 112.84892996 0 106 C-4.29 106 -8.58 106 -13 106 C-13 89.17 -13 72.34 -13 55 C-8.71 55 -4.42 55 0 55 C0 36.85 0 18.7 0 0 Z " fill="#090040" transform="translate(914,385)"/>
<path d="M0 0 C16.83 0 33.66 0 51 0 C51 75.57 51 151.14 51 229 C34.17 229 17.34 229 0 229 C0 153.43 0 77.86 0 0 Z " fill="#090040" transform="translate(1318,384)"/>
</svg>
